<svg xmlns="http://www.w3.org/2000/svg" version="1.1" xmlns:xlink="http://www.w3.org/1999/xlink" xmlns:svgjs="http://svgjs.dev/svgjs" width="1000" height="750" viewBox="0 0 1000 750"><rect width="1000" height="750" fill="#471aa0"></rect><g transform="matrix(0.5845845845845846,0,0,0.5845845845845846,207.58158741832204,82.87400583090377)"><svg viewBox="0 0 343 343" data-background-color="#471aa0" preserveAspectRatio="xMidYMid meet" height="999" width="1000" xmlns="http://www.w3.org/2000/svg" xmlns:xlink="http://www.w3.org/1999/xlink"><g id="tight-bounds" transform="matrix(1,0,0,1,0.0740000000000407,0.07400000000001228)"><svg viewBox="0 0 342.85155851775386 342.85155851775386" height="342.85155851775386" width="342.85155851775386"><g><svg></svg></g><g><svg viewBox="0 0 342.85155851775386 342.85155851775386" height="342.85155851775386" width="342.85155851775386"><g><path d="M0 171.426c0-94.676 76.75-171.426 171.426-171.426 94.676 0 171.426 76.75 171.426 171.426 0 94.676-76.75 171.426-171.426 171.426-94.676 0-171.426-76.75-171.426-171.426zM171.426 338.734c92.402 0 167.308-74.906 167.308-167.308 0-92.402-74.906-167.308-167.308-167.308-92.402 0-167.308 74.906-167.308 167.308 0 92.402 74.906 167.308 167.308 167.308z" data-fill-palette-color="tertiary" fill="#ffffff" stroke="transparent"></path><ellipse rx="164.56874808852186" ry="164.56874808852186" cx="171.42577925887693" cy="171.42577925887693" fill="#ffffff" stroke="transparent" stroke-width="0" fill-opacity="1" data-fill-palette-color="tertiary"></ellipse></g><g transform="matrix(1,0,0,1,64.84655864529837,111.65089092126223)"><svg viewBox="0 0 213.1584412271571 119.5497766752294" height="119.5497766752294" width="213.1584412271571"><g><svg viewBox="0 0 213.1584412271571 119.5497766752294" height="119.5497766752294" width="213.1584412271571"><g><svg viewBox="0 0 213.1584412271571 119.5497766752294" height="119.5497766752294" width="213.1584412271571"><g transform="matrix(1,0,0,1,0,73.8865580844668)"><svg viewBox="0 0 213.1584412271571 45.663218590762604" height="45.663218590762604" width="213.1584412271571"><g id="textblocktransform"><svg viewBox="0 0 213.1584412271571 45.663218590762604" height="45.663218590762604" width="213.1584412271571" id="textblock"><g><svg viewBox="0 0 213.1584412271571 45.663218590762604" height="45.663218590762604" width="213.1584412271571"><g transform="matrix(1,0,0,1,0,0)"><svg width="213.1584412271571" viewBox="2.049999952316284 -35.5 168.02999877929688 36" height="45.663218590762604" data-palette-color="#471aa0"><path d="M2.05 0L2.05-35 9.9-35 13.4-9.95 13.5-9.95 17-35 24.85-35 24.85 0 19.65 0 19.65-26.5 19.55-26.5 15.55 0 10.95 0 6.95-26.5 6.85-26.5 6.85 0 2.05 0ZM36.95 0.5Q32.95 0.5 30.85-1.78 28.75-4.05 28.75-8.3L28.75-8.3 28.75-35 34.25-35 34.25-7.9Q34.25-6.1 34.97-5.3 35.7-4.5 37.05-4.5L37.05-4.5Q38.4-4.5 39.12-5.3 39.85-6.1 39.85-7.9L39.85-7.9 39.85-35 45.15-35 45.15-8.3Q45.15-4.05 43.05-1.78 40.95 0.5 36.95 0.5L36.95 0.5ZM56.2 0.5Q52.2 0.5 50.15-1.78 48.1-4.05 48.1-8.3L48.1-8.3 48.1-10.3 53.3-10.3 53.3-7.9Q53.3-4.5 56.15-4.5L56.15-4.5Q57.55-4.5 58.27-5.33 59-6.15 59-8L59-8Q59-10.2 58-11.88 57-13.55 54.3-15.9L54.3-15.9Q50.9-18.9 49.55-21.33 48.2-23.75 48.2-26.8L48.2-26.8Q48.2-30.95 50.3-33.23 52.4-35.5 56.4-35.5L56.4-35.5Q60.35-35.5 62.37-33.23 64.4-30.95 64.4-26.7L64.4-26.7 64.4-25.25 59.2-25.25 59.2-27.05Q59.2-28.85 58.5-29.68 57.8-30.5 56.45-30.5L56.45-30.5Q53.7-30.5 53.7-27.15L53.7-27.15Q53.7-25.25 54.72-23.6 55.75-21.95 58.45-19.6L58.45-19.6Q61.9-16.6 63.2-14.15 64.5-11.7 64.5-8.4L64.5-8.4Q64.5-4.1 62.37-1.8 60.25 0.5 56.2 0.5L56.2 0.5ZM67.64 0L67.64-35 73.14-35 73.14 0 67.64 0ZM84.99 0.5Q81.04 0.5 78.97-1.75 76.89-4 76.89-8.1L76.89-8.1 76.89-26.9Q76.89-31 78.97-33.25 81.04-35.5 84.99-35.5L84.99-35.5Q88.94-35.5 91.02-33.25 93.09-31 93.09-26.9L93.09-26.9 93.09-23.2 87.89-23.2 87.89-27.25Q87.89-30.5 85.14-30.5L85.14-30.5Q82.39-30.5 82.39-27.25L82.39-27.25 82.39-7.7Q82.39-4.5 85.14-4.5L85.14-4.5Q87.89-4.5 87.89-7.7L87.89-7.7 87.89-13.05 93.09-13.05 93.09-8.1Q93.09-4 91.02-1.75 88.94 0.5 84.99 0.5L84.99 0.5ZM96.39 0L96.39-35 101.89-35 101.89-5 110.94-5 110.94 0 96.39 0ZM121.34 0.5Q117.29 0.5 115.14-1.8 112.99-4.1 112.99-8.3L112.99-8.3 112.99-26.7Q112.99-30.9 115.14-33.2 117.29-35.5 121.34-35.5L121.34-35.5Q125.39-35.5 127.54-33.2 129.69-30.9 129.69-26.7L129.69-26.7 129.69-8.3Q129.69-4.1 127.54-1.8 125.39 0.5 121.34 0.5L121.34 0.5ZM121.34-4.5Q124.19-4.5 124.19-7.95L124.19-7.95 124.19-27.05Q124.19-30.5 121.34-30.5L121.34-30.5Q118.49-30.5 118.49-27.05L118.49-27.05 118.49-7.95Q118.49-4.5 121.34-4.5L121.34-4.5ZM141.38 0.5Q137.38 0.5 135.28-1.78 133.18-4.05 133.18-8.3L133.18-8.3 133.18-35 138.68-35 138.68-7.9Q138.68-6.1 139.41-5.3 140.13-4.5 141.48-4.5L141.48-4.5Q142.83-4.5 143.56-5.3 144.28-6.1 144.28-7.9L144.28-7.9 144.28-35 149.58-35 149.58-8.3Q149.58-4.05 147.48-1.78 145.38 0.5 141.38 0.5L141.38 0.5ZM153.48 0L153.48-35 161.88-35Q165.98-35 168.03-32.8 170.08-30.6 170.08-26.35L170.08-26.35 170.08-8.65Q170.08-4.4 168.03-2.2 165.98 0 161.88 0L161.88 0 153.48 0ZM158.98-5L161.78-5Q163.13-5 163.86-5.8 164.58-6.6 164.58-8.4L164.58-8.4 164.58-26.6Q164.58-28.4 163.86-29.2 163.13-30 161.78-30L161.78-30 158.98-30 158.98-5Z" opacity="1" transform="matrix(1,0,0,1,0,0)" fill="#471aa0" class="wordmark-text-0" data-fill-palette-color="quaternary" id="text-0"></path></svg></g></svg></g></svg></g></svg></g><g transform="matrix(1,0,0,1,56.09396613963142,0)"><svg viewBox="0 0 100.97050894789427 63.106568092433925" height="63.106568092433925" width="100.97050894789427"><g><svg xmlns="http://www.w3.org/2000/svg" xmlns:xlink="http://www.w3.org/1999/xlink" version="1.1" x="0" y="0" viewBox="0 0 100 62.5" style="enable-background:new 0 0 100 62.5;" xml:space="preserve" width="100.97050894789427" height="63.106568092433925" class="icon-icon-0" data-fill-palette-color="quaternary" id="icon-0"><path d="M75 12.5c-1.184 0-2.307 0.189-3.442 0.348C67.199 5.146 59.143 0 50 0c-9.338 0-17.395 5.206-21.691 12.812C27.209 12.665 26.111 12.5 25 12.5c-13.781 0-25 11.212-25 25 0 13.794 11.219 25 25 25h50c13.781 0 25-11.206 25-25C100 23.712 88.781 12.5 75 12.5zM75 50H25c-6.896 0-12.5-5.609-12.5-12.5 0-6.854 6.066-12.14 12.512-12.329 0.025 2.948 0.537 5.841 1.562 8.575l11.707-4.382C37.756 27.979 37.5 26.508 37.5 25c0-6.891 5.604-12.5 12.5-12.5 4.041 0 7.703 2.002 9.998 5.121C53.967 22.187 50 29.357 50 37.5h12.5C62.5 30.609 68.104 25 75 25s12.5 5.609 12.5 12.5S81.896 50 75 50z" fill="#471aa0" data-fill-palette-color="quaternary"></path></svg></g></svg></g><g></g></svg></g></svg></g></svg></g></svg></g><defs></defs></svg><rect width="342.85155851775386" height="342.85155851775386" fill="none" stroke="none" visibility="hidden"></rect></g></svg></g></svg>